<?xml version="1.0" encoding="UTF-8" standalone="no"?>
<!DOCTYPE svg PUBLIC "-//W3C//DTD SVG 1.1//EN" "http://www.w3.org/Graphics/SVG/1.1/DTD/svg11.dtd">
<svg xmlns="http://www.w3.org/2000/svg" version="1.1" viewBox="0.00 0.00 83.00 83.00">
<path fill="#000000" d="
  M 39.33 0.00
  L 42.55 0.00
  Q 53.68 1.30 58.70 10.77
  C 61.76 16.54 61.60 24.50 58.21 30.00
  Q 52.38 39.44 41.65 39.94
  C 23.10 40.79 13.63 17.56 27.63 5.05
  Q 32.44 0.75 39.33 0.00
  Z"
/>
<path fill="#000000" d="
  M 63.03 83.00
  L 19.91 83.00
  Q 8.39 81.62 6.79 70.26
  Q 6.36 67.21 7.48 59.70
  C 8.80 50.85 12.71 42.08 22.02 40.36
  C 24.16 39.96 26.33 39.99 28.16 41.33
  C 34.11 45.69 40.35 47.90 47.51 45.33
  C 50.43 44.29 52.71 42.63 55.28 41.01
  C 59.11 38.58 65.68 41.49 68.42 44.14
  C 74.54 50.06 76.29 60.69 76.04 69.01
  Q 75.69 81.04 63.03 83.00
  Z"
/>
</svg>
