<?xml version="1.0" encoding="UTF-8" standalone="no"?>
<!DOCTYPE svg PUBLIC "-//W3C//DTD SVG 1.1//EN" "http://www.w3.org/Graphics/SVG/1.1/DTD/svg11.dtd">
<svg xmlns="http://www.w3.org/2000/svg" version="1.1" viewBox="0.00 0.00 608.00 605.00">
<path fill="#000000" d="
  M 300.35 0.00
  L 310.34 0.00
  Q 320.20 1.93 326.15 7.84
  Q 352.24 33.76 378.06 59.35
  Q 378.71 60.00 377.79 60.00
  L 233.06 60.00
  Q 232.28 60.00 232.84 59.44
  Q 257.50 34.94 282.63 9.82
  C 287.96 4.49 293.22 1.41 300.35 0.00
  Z"
/>
<path fill="#000000" d="
  M 125.00 127.34
  L 125.00 295.71
  Q 125.00 296.24 124.62 295.86
  Q 107.99 278.71 92.00 261.12
  Q 91.70 260.78 91.69 260.33
  Q 91.62 180.49 91.70 121.72
  C 91.72 105.09 106.00 86.71 123.79 86.70
  Q 317.10 86.53 487.88 86.72
  C 501.84 86.73 513.27 100.21 517.05 112.64
  Q 518.40 117.09 518.38 123.62
  Q 518.24 193.08 518.31 260.76
  Q 518.31 261.32 517.93 261.74
  L 485.58 296.53
  Q 485.00 297.16 485.00 296.29
  L 485.00 127.21
  Q 485.00 126.68 484.46 126.68
  L 125.66 126.68
  Q 125.00 126.68 125.00 127.34
  Z"
/>
<rect fill="#000000" x="-64.75" y="-16.67" transform="translate(397.65,183.33) rotate(0.1)" width="129.50" height="33.34" rx="15.70"/>
<rect fill="#000000" x="165.00" y="173.30" width="126.68" height="126.70" rx="0.49"/>
<rect fill="#000000" x="-64.77" y="-13.32" transform="translate(397.65,233.33) rotate(-0.1)" width="129.54" height="26.64" rx="13.02"/>
<path fill="#000000" d="
  M 564.47 554.77
  L 414.99 405.28
  A 0.31 0.31 0.0 0 1 414.99 404.84
  L 564.47 255.35
  A 0.31 0.31 0.0 0 1 565.00 255.57
  L 565.00 554.55
  A 0.31 0.31 0.0 0 1 564.47 554.77
  Z"
/>
<path fill="#000000" d="
  M 38.85 255.31
  L 188.34 404.80
  A 0.32 0.32 0.0 0 1 188.34 405.26
  L 38.85 554.75
  A 0.32 0.32 0.0 0 1 38.30 554.52
  L 38.30 255.54
  A 0.32 0.32 0.0 0 1 38.85 255.31
  Z"
/>
<rect fill="#000000" x="-64.74" y="-16.70" transform="translate(397.65,283.30) rotate(0.1)" width="129.48" height="33.40" rx="15.73"/>
<path fill="#000000" d="
  M 161.15 326.43
  A 0.84 0.83 -25.0 0 0 161.68 326.62
  Q 304.82 326.62 447.65 326.64
  C 448.82 326.64 449.97 326.35 451.12 326.35
  Q 451.84 326.35 451.33 326.86
  L 424.72 352.93
  A 1.34 1.33 -66.9 0 1 423.79 353.31
  L 188.01 353.31
  A 1.09 1.05 -21.8 0 1 187.25 353.00
  L 160.30 326.74
  Q 159.83 326.29 160.48 326.20
  Q 160.82 326.16 161.15 326.43
  Z"
/>
<path fill="#000000" d="
  M 373.62 406.68
  L 238.55 406.68
  A 0.31 0.31 0.0 0 1 238.34 406.59
  L 210.83 380.52
  A 0.31 0.31 0.0 0 1 211.05 379.99
  L 400.97 379.99
  A 0.31 0.31 0.0 0 1 401.18 380.52
  L 373.83 406.59
  A 0.31 0.31 0.0 0 1 373.62 406.68
  Z"
/>
<path fill="#000000" d="
  M 298.70 508.96
  Q 306.04 511.60 313.18 508.63
  Q 316.57 507.22 321.34 502.43
  Q 356.46 467.13 391.09 432.64
  A 0.35 0.35 0.0 0 1 391.58 432.64
  L 555.85 596.95
  A 0.33 0.33 0.0 0 1 555.77 597.48
  C 551.95 599.39 548.31 599.99 543.95 599.99
  Q 305.47 600.00 66.98 599.99
  C 62.70 599.99 59.19 599.41 55.41 597.57
  Q 54.82 597.29 55.28 596.82
  L 219.36 432.64
  A 0.42 0.41 45.0 0 1 219.95 432.65
  Q 256.52 469.22 293.17 505.85
  Q 294.92 507.59 298.70 508.96
  Z"
/>
<path fill="#000000" d="
  M 263.14 433.30
  L 349.15 433.30
  A 0.33 0.33 0.0 0 1 349.34 433.90
  L 322.28 453.24
  A 0.33 0.33 0.0 0 1 322.08 453.30
  L 290.36 453.31
  A 0.33 0.33 0.0 0 1 290.16 453.25
  L 262.95 433.90
  A 0.33 0.33 0.0 0 1 263.14 433.30
  Z"
/>
</svg>
