<?xml version="1.0" encoding="UTF-8" standalone="no"?>
<!DOCTYPE svg PUBLIC "-//W3C//DTD SVG 1.1//EN" "http://www.w3.org/Graphics/SVG/1.1/DTD/svg11.dtd">
<svg xmlns="http://www.w3.org/2000/svg" version="1.1" viewBox="0.00 0.00 861.00 505.00">
<path fill="#000000" d="
  M 258.50 0.00
  L 591.87 0.00
  Q 594.01 0.35 596.24 0.25
  Q 597.34 0.20 598.08 0.99
  Q 598.47 1.41 599.02 1.59
  Q 607.84 4.53 614.00 10.55
  C 622.38 18.75 623.99 29.69 623.99 41.60
  Q 623.99 169.15 624.03 297.34
  C 624.03 308.02 622.96 319.37 615.84 327.38
  Q 609.04 335.02 600.17 337.76
  Q 595.98 339.07 590.62 339.06
  Q 525.19 338.95 453.77 339.01
  A 0.56 0.56 0.0 0 1 453.21 338.45
  L 452.97 317.54
  A 0.60 0.60 0.0 0 1 453.57 316.93
  Q 518.19 316.95 582.91 316.93
  Q 592.01 316.92 593.07 316.71
  C 598.69 315.57 604.01 310.46 604.01 304.29
  Q 603.98 175.65 604.01 37.18
  C 604.01 32.20 602.99 28.55 598.75 25.23
  Q 594.94 22.24 589.26 22.05
  C 579.73 21.72 570.31 22.01 560.59 22.01
  Q 405.36 21.97 260.75 22.03
  C 253.36 22.03 246.02 27.59 246.01 35.55
  Q 245.97 89.12 246.01 143.52
  A 2.90 2.88 75.8 0 1 244.51 146.06
  C 241.34 147.80 232.70 152.53 231.67 156.22
  A 0.97 0.96 -0.6 0 1 231.00 156.90
  Q 229.17 157.42 227.48 156.85
  Q 226.90 156.66 226.91 156.06
  Q 227.03 96.06 226.86 38.88
  Q 226.84 31.39 227.56 25.94
  Q 228.29 20.51 233.71 13.47
  C 238.07 7.80 244.59 3.76 251.21 1.60
  Q 251.77 1.42 252.16 0.97
  Q 252.89 0.15 254.25 0.25
  Q 255.90 0.38 258.50 0.00
  Z"
/>
<path fill="#000000" d="
  M 675.06 0.00
  L 827.88 0.00
  Q 838.77 0.37 846.89 6.14
  Q 856.97 13.32 860.35 25.97
  C 860.90 28.04 860.71 30.06 861.00 32.26
  L 861.00 374.87
  C 860.71 376.14 860.94 377.78 860.25 378.90
  Q 859.43 380.25 859.30 380.61
  Q 857.03 387.00 855.63 389.07
  Q 844.78 405.18 825.01 405.10
  Q 775.72 404.89 708.40 405.06
  C 695.17 405.09 686.20 405.31 674.81 404.90
  Q 663.96 404.50 655.54 397.99
  Q 647.53 391.80 644.46 382.60
  Q 642.97 378.14 642.97 364.70
  C 643.01 254.97 642.86 145.23 642.87 35.50
  C 642.88 28.56 643.67 22.94 647.41 16.78
  Q 654.15 5.65 668.00 1.55
  Q 668.48 1.41 668.85 1.08
  C 670.36 -0.24 673.16 0.36 675.06 0.00
  Z
  M 822.6580 64.2659
  A 12.97 12.97 0.0 0 0 809.6653 51.3185
  L 693.3655 51.5215
  A 12.97 12.97 0.0 0 0 680.4182 64.5141
  L 680.4620 89.6541
  A 12.97 12.97 0.0 0 0 693.4547 102.6015
  L 809.7545 102.3985
  A 12.97 12.97 0.0 0 0 822.7018 89.4059
  L 822.6580 64.2659
  Z
  M 807.94 177.00
  A 0.56 0.56 0.0 0 0 807.38 176.44
  L 695.74 176.44
  A 0.56 0.56 0.0 0 0 695.18 177.00
  L 695.18 190.76
  A 0.56 0.56 0.0 0 0 695.74 191.32
  L 807.38 191.32
  A 0.56 0.56 0.0 0 0 807.94 190.76
  L 807.94 177.00
  Z
  M 807.94 218.42
  A 0.68 0.68 0.0 0 0 807.26 217.74
  L 695.88 217.74
  A 0.68 0.68 0.0 0 0 695.20 218.42
  L 695.20 232.00
  A 0.68 0.68 0.0 0 0 695.88 232.68
  L 807.26 232.68
  A 0.68 0.68 0.0 0 0 807.94 232.00
  L 807.94 218.42
  Z
  M 807.96 259.25
  A 0.48 0.48 0.0 0 0 807.48 258.77
  L 695.60 258.77
  A 0.48 0.48 0.0 0 0 695.12 259.25
  L 695.12 273.65
  A 0.48 0.48 0.0 0 0 695.60 274.13
  L 807.48 274.13
  A 0.48 0.48 0.0 0 0 807.96 273.65
  L 807.96 259.25
  Z
  M 775.90 344.39
  A 24.38 24.38 0.0 0 0 751.52 320.01
  A 24.38 24.38 0.0 0 0 727.14 344.39
  A 24.38 24.38 0.0 0 0 751.52 368.77
  A 24.38 24.38 0.0 0 0 775.90 344.39
  Z"
/>
<path fill="#000000" d="
  M 396.47 103.48
  A 1.55 1.55 0.0 0 0 395.06 102.22
  C 388.93 101.75 382.62 101.95 376.57 102.91
  Q 351.10 106.97 329.68 112.71
  C 312.27 117.37 294.39 124.36 277.45 131.30
  Q 276.94 131.51 276.94 130.95
  L 276.94 53.78
  A 0.78 0.78 0.0 0 1 277.72 53.00
  L 573.61 53.00
  Q 574.00 53.00 574.00 53.39
  L 574.00 285.00
  A 2.00 2.00 0.0 0 1 572.00 287.00
  L 454.00 287.00
  A 0.86 0.85 0.0 0 1 453.14 286.15
  Q 452.96 253.90 452.96 221.00
  C 452.96 206.39 452.18 191.29 451.92 177.13
  C 451.87 174.08 450.86 171.36 447.96 170.27
  Q 445.41 169.32 443.48 167.04
  Q 434.83 156.79 426.59 146.92
  C 424.63 144.57 424.86 141.05 425.01 138.21
  A 1.16 1.16 0.0 0 0 424.12 137.03
  Q 421.41 136.39 418.66 136.07
  Q 416.99 135.88 415.93 134.55
  Q 407.76 124.37 399.31 114.76
  C 396.26 111.29 397.23 107.60 396.47 103.48
  Z"
/>
<path fill="#000000" d="
  M 194.89 449.26
  Q 148.35 427.53 98.20 417.22
  C 85.96 414.70 73.63 413.06 61.20 410.39
  A 1.51 1.51 0.0 0 1 60.00 408.91
  Q 60.03 398.02 59.99 387.01
  Q 59.95 378.59 59.39 367.16
  Q 58.35 346.00 59.38 325.05
  Q 59.90 314.50 59.92 305.31
  Q 60.03 228.39 59.99 154.27
  Q 59.98 143.73 60.52 133.90
  Q 61.15 122.27 61.00 108.70
  A 0.91 0.91 0.0 0 1 61.92 107.78
  Q 67.76 107.86 74.21 108.77
  C 85.82 110.42 97.68 113.15 109.10 115.67
  Q 117.77 117.58 125.76 120.08
  Q 156.60 129.71 186.29 143.03
  C 196.53 147.62 206.53 151.89 215.30 158.82
  Q 215.87 159.27 215.91 160.00
  Q 216.14 164.77 216.13 170.81
  Q 215.92 282.10 215.98 406.76
  Q 215.99 415.55 215.52 427.24
  Q 214.92 442.62 215.02 457.29
  A 0.50 0.49 -79.0 0 1 214.34 457.76
  Q 204.71 453.84 194.89 449.26
  Z"
/>
<path fill="#000000" d="
  M 304.54 430.41
  C 281.52 438.04 259.76 448.02 237.78 457.97
  Q 236.01 458.77 236.01 456.83
  Q 235.97 327.85 236.02 199.65
  Q 236.03 194.88 236.35 190.24
  C 237.00 180.80 236.70 170.78 237.03 162.01
  Q 237.18 157.95 241.16 155.58
  Q 256.95 146.22 275.85 138.67
  C 295.37 130.87 315.31 122.73 334.77 117.75
  Q 349.42 114.00 364.96 110.98
  Q 377.88 108.47 389.74 107.70
  A 1.02 1.02 0.0 0 1 390.83 108.66
  C 391.41 117.97 392.00 127.12 392.00 136.32
  Q 391.98 174.31 392.08 212.90
  C 392.10 218.75 392.93 224.92 392.94 230.53
  Q 393.03 298.35 393.02 372.07
  Q 393.01 381.94 392.55 390.47
  Q 392.04 399.64 391.91 409.28
  A 1.47 1.47 0.0 0 1 390.68 410.71
  Q 378.35 412.67 364.39 415.23
  Q 332.91 421.00 304.54 430.41
  Z"
/>
<path fill="#000000" d="
  M 42.05 427.40
  Q 45.36 428.60 49.05 429.21
  Q 65.59 431.98 81.39 434.24
  Q 91.06 435.61 101.18 437.93
  Q 122.86 442.89 144.87 450.33
  Q 153.83 453.36 162.79 456.98
  Q 171.37 460.46 180.80 464.29
  Q 181.01 464.37 180.94 464.58
  L 180.93 464.59
  Q 180.86 464.80 180.64 464.73
  Q 131.61 448.49 80.74 444.51
  Q 60.68 442.94 40.01 441.84
  C 37.95 441.73 35.83 441.33 33.79 440.97
  A 1.11 1.11 0.0 0 1 32.87 439.95
  C 32.62 436.60 31.96 433.39 31.97 430.01
  Q 32.06 392.29 31.92 358.72
  C 31.89 351.47 31.08 344.12 31.06 337.09
  Q 30.94 277.86 31.01 217.05
  Q 31.02 211.73 31.43 206.57
  Q 31.92 200.51 31.93 196.91
  Q 31.99 172.07 32.04 144.35
  Q 32.04 142.04 34.35 142.01
  L 35.56 142.00
  Q 37.91 141.97 37.92 144.32
  C 37.97 152.58 37.85 160.27 38.58 168.40
  Q 38.99 173.04 38.99 177.52
  Q 38.98 250.96 39.03 320.65
  C 39.03 328.62 39.40 336.65 39.77 344.65
  Q 40.02 350.01 40.01 354.40
  Q 39.93 385.29 40.08 416.15
  Q 40.10 420.80 41.44 426.71
  Q 41.55 427.23 42.05 427.40
  Z"
/>
<path fill="#000000" d="
  M 278.88 461.96
  Q 281.77 460.41 284.24 459.41
  Q 297.70 453.96 308.39 450.08
  Q 339.58 438.76 371.24 433.86
  Q 385.57 431.65 400.27 429.73
  C 403.26 429.34 406.20 428.36 409.18 427.83
  A 2.49 2.48 -85.0 0 0 411.08 426.23
  Q 411.93 423.85 411.95 421.25
  Q 412.00 410.81 412.00 401.25
  Q 411.99 398.18 412.48 394.25
  Q 412.96 390.43 412.96 387.25
  Q 413.02 302.25 413.01 217.25
  Q 413.01 213.25 413.46 208.40
  Q 413.94 203.26 413.93 199.57
  Q 413.89 173.00 414.11 147.50
  Q 414.11 146.45 414.76 143.14
  Q 414.88 142.56 415.40 142.27
  Q 416.43 141.70 417.70 141.97
  A 1.59 1.58 5.8 0 1 418.97 143.52
  Q 419.00 289.84 419.07 436.00
  Q 419.07 438.42 418.77 440.69
  A 1.28 1.27 -87.1 0 1 417.54 441.81
  Q 390.33 442.68 363.52 445.20
  Q 328.65 448.48 295.98 457.32
  Q 287.28 459.68 278.44 462.31
  Q 278.32 462.35 278.24 462.25
  Q 278.21 462.21 278.22 462.16
  Q 278.25 462.06 278.34 462.06
  Q 278.49 462.05 278.63 462.04
  Q 278.76 462.03 278.88 461.96
  Z"
/>
<path fill="#000000" d="
  M 14.79 458.96
  Q 18.07 460.59 20.00 460.69
  C 51.85 462.40 82.64 463.81 113.51 468.53
  Q 150.61 474.19 186.58 487.45
  Q 201.91 493.11 216.17 498.68
  Q 216.28 498.72 216.20 498.81
  L 215.94 499.10
  Q 215.80 499.25 215.61 499.20
  Q 184.96 492.59 154.27 486.71
  C 147.10 485.33 139.41 484.39 132.17 483.81
  Q 103.82 481.57 83.50 481.99
  Q 46.16 482.76 11.25 484.92
  Q 9.50 485.03 7.64 484.87
  A 1.75 1.75 0.0 0 1 6.05 483.16
  C 5.97 477.56 6.16 472.00 5.70 466.28
  Q 4.96 456.86 4.96 447.00
  Q 4.99 328.88 5.01 210.75
  Q 5.01 206.57 5.45 201.90
  Q 5.90 197.01 5.95 192.81
  Q 6.04 185.45 6.09 178.33
  Q 6.10 176.89 7.39 176.23
  L 9.43 175.20
  Q 11.00 174.41 11.00 176.17
  Q 10.97 257.67 11.04 329.50
  C 11.05 336.53 11.98 343.49 11.98 350.50
  Q 12.02 392.00 12.05 433.50
  Q 12.06 443.51 12.99 454.74
  C 13.13 456.44 12.88 458.01 14.79 458.96
  Z"
/>
<path fill="#000000" d="
  M 431.25 460.64
  C 434.84 460.41 440.00 459.30 440.00 454.57
  Q 439.98 422.59 440.04 391.28
  Q 440.05 386.75 440.62 382.03
  Q 440.95 379.27 440.95 376.00
  Q 441.03 276.71 441.00 176.89
  Q 441.00 174.97 442.86 175.42
  L 444.51 175.81
  Q 445.86 176.13 445.96 177.51
  Q 446.97 191.99 446.97 204.61
  Q 447.00 337.51 446.96 460.93
  Q 446.96 469.93 445.89 482.88
  Q 445.70 485.18 443.40 485.04
  Q 410.71 483.15 379.25 482.08
  Q 353.72 481.21 316.06 484.39
  Q 306.31 485.22 296.23 486.96
  Q 277.02 490.27 267.15 492.62
  Q 253.80 495.80 239.09 498.98
  Q 236.26 499.59 233.43 499.68
  Q 232.50 499.71 233.37 499.39
  Q 254.58 491.56 273.45 484.72
  Q 306.51 472.74 347.18 467.00
  Q 353.07 466.17 364.53 465.11
  Q 373.26 464.31 381.94 463.75
  Q 404.98 462.26 431.25 460.64
  Z"
/>
<path fill="#000000" d="
  M 483.24 384.00
  A 1.14 0.99 14.9 0 0 483.40 384.01
  Q 513.04 383.96 541.90 384.04
  Q 549.78 384.06 553.43 390.53
  C 555.64 394.44 555.25 399.82 555.00 404.25
  A 0.80 0.79 -88.1 0 1 554.21 405.00
  L 453.91 405.01
  A 0.85 0.84 90.0 0 1 453.07 404.16
  L 452.98 363.48
  A 0.54 0.54 0.0 0 1 453.52 362.94
  L 481.46 362.94
  Q 482.02 362.94 482.02 363.50
  Q 481.97 373.18 482.02 383.15
  Q 482.02 383.81 483.24 384.00
  Z"
/>
</svg>
